<mxfile host="65bd71144e">
    <diagram id="GdGLMfevB64v4QgqyTME" name="Page-1">
        <mxGraphModel dx="685" dy="1900" grid="1" gridSize="10" guides="1" tooltips="1" connect="1" arrows="1" fold="1" page="1" pageScale="1" pageWidth="850" pageHeight="1100" math="0" shadow="0">
            <root>
                <mxCell id="0"/>
                <mxCell id="1" style="" parent="0"/>
                <mxCell id="LlLVEiTdEuNXF2CMYThY-5" value="" style="rounded=0;whiteSpace=wrap;html=1;fillColor=#f5f5f5;strokeColor=#666666;gradientColor=#CCCCCC;" parent="1" vertex="1">
                    <mxGeometry x="0.33" y="30.11" width="669.67" height="549.89" as="geometry"/>
                </mxCell>
                <mxCell id="LlLVEiTdEuNXF2CMYThY-8" value="&lt;div align=&quot;left&quot;&gt;&lt;p&gt;&lt;font style=&quot;font-size: 18px&quot; face=&quot;Helvetica&quot;&gt;lirejarp template&lt;/font&gt;&lt;/p&gt;&lt;/div&gt;" style="rounded=0;whiteSpace=wrap;html=1;fontFamily=Comic Sans MS;" parent="1" vertex="1">
                    <mxGeometry x="0.33" width="149.67" height="30.11" as="geometry"/>
                </mxCell>
                <mxCell id="LlLVEiTdEuNXF2CMYThY-14" value="parts" parent="0"/>
                <mxCell id="LlLVEiTdEuNXF2CMYThY-24" value="" style="rounded=0;whiteSpace=wrap;html=1;fontFamily=Comic Sans MS;fillColor=#d5e8d4;strokeColor=#82b366;gradientColor=#97d077;" parent="LlLVEiTdEuNXF2CMYThY-14" vertex="1">
                    <mxGeometry x="31" y="97" width="329" height="459.5" as="geometry"/>
                </mxCell>
                <mxCell id="LlLVEiTdEuNXF2CMYThY-33" value="&lt;div&gt;&lt;br&gt;&lt;/div&gt;&lt;div&gt;&lt;br&gt;&lt;ul&gt;&lt;li&gt;&lt;font style=&quot;font-size: 14px&quot; face=&quot;Helvetica&quot;&gt;Maven tomee plugin to configure tomee&lt;/font&gt;&lt;/li&gt;&lt;li&gt;&lt;font style=&quot;font-size: 14px&quot; face=&quot;Helvetica&quot;&gt;Maven profiles for h2 and MySQL&lt;br&gt;&lt;/font&gt;&lt;/li&gt;&lt;/ul&gt;&lt;/div&gt;&lt;blockquote&gt;&lt;div&gt;&lt;div&gt;&lt;font style=&quot;font-size: 14px&quot; face=&quot;Helvetica&quot;&gt;&lt;br&gt;&lt;/font&gt;&lt;/div&gt;&lt;/div&gt;&lt;/blockquote&gt;" style="rounded=0;whiteSpace=wrap;html=1;fontFamily=Comic Sans MS;fillColor=#d5e8d4;strokeColor=#82b366;gradientColor=#97d077;align=left;verticalAlign=middle;" parent="LlLVEiTdEuNXF2CMYThY-14" vertex="1">
                    <mxGeometry x="380" y="100" width="270" height="70" as="geometry"/>
                </mxCell>
                <mxCell id="LlLVEiTdEuNXF2CMYThY-36" value="&lt;div style=&quot;font-size: 16px&quot; align=&quot;left&quot;&gt;&lt;font style=&quot;font-size: 16px&quot;&gt;MySQL&lt;/font&gt;&lt;/div&gt;" style="rounded=0;whiteSpace=wrap;html=1;fontFamily=Helvetica;fontSize=18;align=left;" parent="LlLVEiTdEuNXF2CMYThY-14" vertex="1">
                    <mxGeometry x="380" y="70" width="90" height="30" as="geometry"/>
                </mxCell>
                <mxCell id="LlLVEiTdEuNXF2CMYThY-37" value="&lt;font style=&quot;font-size: 14px&quot; face=&quot;Helvetica&quot;&gt;Ant scripts for maven build&lt;/font&gt;&lt;br&gt;" style="rounded=0;whiteSpace=wrap;html=1;fontFamily=Comic Sans MS;fillColor=#d5e8d4;strokeColor=#82b366;gradientColor=#97d077;shadow=0;" parent="LlLVEiTdEuNXF2CMYThY-14" vertex="1">
                    <mxGeometry x="380" y="230" width="270" height="70" as="geometry"/>
                </mxCell>
                <mxCell id="LlLVEiTdEuNXF2CMYThY-38" value="&lt;font style=&quot;font-size: 16px&quot;&gt;Keycloak&lt;/font&gt;" style="rounded=0;whiteSpace=wrap;html=1;fontFamily=Helvetica;fontSize=18;align=left;" parent="LlLVEiTdEuNXF2CMYThY-14" vertex="1">
                    <mxGeometry x="380" y="200" width="90" height="30" as="geometry"/>
                </mxCell>
                <mxCell id="LlLVEiTdEuNXF2CMYThY-40" value="" style="rounded=0;whiteSpace=wrap;html=1;dashed=1;strokeWidth=2;fontFamily=Helvetica;fontSize=18;align=left;fillColor=none;strokeColor=#003300;" parent="LlLVEiTdEuNXF2CMYThY-14" vertex="1">
                    <mxGeometry x="40" y="140" width="300" height="400" as="geometry"/>
                </mxCell>
                <mxCell id="LlLVEiTdEuNXF2CMYThY-42" style="rounded=0;orthogonalLoop=1;jettySize=auto;html=1;entryX=1;entryY=0;entryDx=0;entryDy=0;fontFamily=Helvetica;fontSize=18;endArrow=none;endFill=0;strokeColor=#003300;strokeWidth=2;" parent="LlLVEiTdEuNXF2CMYThY-14" target="LlLVEiTdEuNXF2CMYThY-40" edge="1" source="LlLVEiTdEuNXF2CMYThY-41">
                    <mxGeometry relative="1" as="geometry">
                        <mxPoint x="330" y="130" as="sourcePoint"/>
                    </mxGeometry>
                </mxCell>
                <mxCell id="LlLVEiTdEuNXF2CMYThY-41" value="&lt;font color=&quot;#003300&quot;&gt;ljprojectbuilder.jar&lt;br&gt;&lt;/font&gt;" style="text;html=1;strokeColor=none;fillColor=none;align=center;verticalAlign=middle;whiteSpace=wrap;rounded=0;dashed=1;fontFamily=Helvetica;fontSize=18;" parent="LlLVEiTdEuNXF2CMYThY-14" vertex="1">
                    <mxGeometry x="210" y="102" width="106" height="20" as="geometry"/>
                </mxCell>
                <mxCell id="LlLVEiTdEuNXF2CMYThY-43" value="&lt;h1 style=&quot;font-size: 17px&quot;&gt;&lt;font style=&quot;font-size: 17px&quot;&gt;App Template for Code Generation&lt;/font&gt;&lt;/h1&gt;" style="text;html=1;strokeColor=none;fillColor=none;spacing=5;spacingTop=-20;whiteSpace=wrap;overflow=hidden;rounded=0;dashed=1;fontFamily=Helvetica;fontSize=18;align=left;" parent="LlLVEiTdEuNXF2CMYThY-14" vertex="1">
                    <mxGeometry x="415" y="400" width="190" height="120" as="geometry"/>
                </mxCell>
                <mxCell id="LlLVEiTdEuNXF2CMYThY-45" value="&lt;div style=&quot;font-size: 16px&quot; align=&quot;left&quot;&gt;&lt;font style=&quot;font-size: 16px&quot;&gt;&amp;nbsp;ljprojectbuilder&lt;/font&gt;&lt;/div&gt;" style="rounded=0;whiteSpace=wrap;html=1;fontFamily=Helvetica;fontSize=18;align=left;" parent="LlLVEiTdEuNXF2CMYThY-14" vertex="1">
                    <mxGeometry x="31" y="67" width="119" height="30" as="geometry"/>
                </mxCell>
                <mxCell id="LlLVEiTdEuNXF2CMYThY-26" value="Components" parent="0"/>
                <mxCell id="LlLVEiTdEuNXF2CMYThY-27" value="application:&#10;project for creating and configuring &#10;application. Spring boot application" style="shape=component;align=left;spacingLeft=36;gradientColor=#E6E6E6;fontFamily=Helvetica;" parent="LlLVEiTdEuNXF2CMYThY-26" vertex="1">
                    <mxGeometry x="50" y="150" width="270" height="60" as="geometry"/>
                </mxCell>
                <mxCell id="LlLVEiTdEuNXF2CMYThY-28" value="webclient:&#10;UI based on react hooks" style="shape=component;align=left;spacingLeft=36;gradientColor=#E6E6E6;fontFamily=Helvetica;" parent="LlLVEiTdEuNXF2CMYThY-26" vertex="1">
                    <mxGeometry x="50" y="227" width="270" height="60" as="geometry"/>
                </mxCell>
                <mxCell id="LlLVEiTdEuNXF2CMYThY-29" value="rest:&#10;REST API" style="shape=component;align=left;spacingLeft=36;gradientColor=#E6E6E6;fontFamily=Helvetica;" parent="LlLVEiTdEuNXF2CMYThY-26" vertex="1">
                    <mxGeometry x="50" y="305" width="270" height="60" as="geometry"/>
                </mxCell>
                <mxCell id="LlLVEiTdEuNXF2CMYThY-30" value="persistence:&#10;entities and services for database access,&#10;db-scripts versioned with flyway" style="shape=component;align=left;spacingLeft=36;gradientColor=#E6E6E6;fontFamily=Helvetica;" parent="LlLVEiTdEuNXF2CMYThY-26" vertex="1">
                    <mxGeometry x="50" y="390" width="270" height="60" as="geometry"/>
                </mxCell>
                <mxCell id="LlLVEiTdEuNXF2CMYThY-31" value="generator:&#10;code generation via freemarker" style="shape=component;align=left;spacingLeft=36;gradientColor=#E6E6E6;fontFamily=Helvetica;" parent="LlLVEiTdEuNXF2CMYThY-26" vertex="1">
                    <mxGeometry x="50" y="470" width="270" height="60" as="geometry"/>
                </mxCell>
            </root>
        </mxGraphModel>
    </diagram>
</mxfile>